<?xml version="1.0" encoding="iso-8859-1"?>
<!-- Generator: Adobe Illustrator 18.1.1, SVG Export Plug-In . SVG Version: 6.00 Build 0)  -->
<svg version="1.1" id="Capa_1" xmlns="http://www.w3.org/2000/svg" xmlns:xlink="http://www.w3.org/1999/xlink" x="0px" y="0px"
	 viewBox="0 0 30.22 30.22" style="enable-background:new 0 0 30.22 30.22;" xml:space="preserve">
<g>
	<path style="fill:#010002;" d="M10.184,17.944c0,1.31-1.063,2.37-2.369,2.37c-1.309,0-2.372-1.061-2.372-2.37
		c0-1.308,1.063-2.369,2.372-2.369C9.119,15.574,10.184,16.636,10.184,17.944z M10.321,21.791l3.513,6.753l-2.087-0.08l-1.136,1.756
		l-2.529-4.859l-1.381,4.681l-1.449-1.506l-2.035,0.477l2.122-7.197c-1.276-0.818-2.122-2.245-2.122-3.873
		c0-2.539,2.058-4.596,4.596-4.596s4.597,2.056,4.597,4.596C12.41,19.555,11.578,20.972,10.321,21.791z M11.924,17.289l-0.983,0.209
		c0.047,0.221,0.071,0.246,0.071,0.474c0,0.47-0.101,0.923-0.297,1.348l0.912,0.425c0.259-0.558,0.394-1.155,0.394-1.772
		C12.021,17.674,11.986,17.577,11.924,17.289z M9.318,15.144c0.405,0.217,0.769,0.527,1.048,0.9l0.804-0.607
		c-0.366-0.484-0.842-0.894-1.376-1.181L9.318,15.144z M6.257,14.048l0.368,0.938C7,14.839,7.394,14.763,7.801,14.763
		c0.062,0,0.126,0.002,0.188,0.006l0.059-1.007c-0.083-0.004-0.163-0.007-0.247-0.007C7.27,13.755,6.747,13.854,6.257,14.048z
		 M3.81,16.612l0.952,0.324c0.149-0.436,0.396-0.844,0.718-1.179l-0.729-0.695C4.33,15.502,4.005,16.039,3.81,16.612z M5.048,19.62
		c-0.242-0.403-0.387-0.844-0.435-1.31L3.61,18.414c0.063,0.614,0.258,1.191,0.574,1.722L5.048,19.62z M5.461,21.411l-0.034,0.046
		c0.007,0.002,0.012,0.005,0.017,0.008L5.461,21.411z M7.277,21.138c-0.463-0.075-0.893-0.25-1.281-0.512l-0.531,0.776l0.604,0.406
		c0.332,0.15,0.679,0.261,1.044,0.322L7.277,21.138z M10.747,17.973c0-1.626-1.319-2.945-2.945-2.945s-2.943,1.319-2.943,2.945
		c0,1.625,1.317,2.942,2.943,2.942S10.747,19.598,10.747,17.973z M8.924,22.036c0.593-0.164,1.131-0.45,1.604-0.85L9.877,20.42
		c-0.359,0.303-0.769,0.521-1.222,0.646L8.924,22.036z M19.609,24.054l0.51,0.361c0.008-0.012,0.781-1.076,2.07-0.97l0.055-0.625
		C20.609,22.677,19.646,23.999,19.609,24.054z M23.287,22.941l-0.623-0.079l-0.08,0.634l0.623,0.079L23.287,22.941z M7.141,0v12.696
		c0.217-0.042,0.442-0.065,0.672-0.065c0.199,0,0.394,0.02,0.582,0.053V1.256h17.354v24.042H12.854l0.695,1.255h13.453V0H7.141z
		 M12.889,3.136v1.255h8.362V3.136H12.889z M10.331,7.084h13.07V6.377h-13.07V7.084z M10.331,9.201h13.07V8.492h-13.07V9.201z
		 M10.331,11.371h13.07v-0.706h-13.07V11.371z M10.331,13.579h13.07v-0.708h-13.07V13.579z M22.325,21.789
		c-0.045-0.032-0.092-0.061-0.133-0.086c-0.099,0.047-0.207,0.086-0.33,0.115l-0.881,0.695c-0.195,0.156-0.441,0.351-0.664,0.351
		c-0.09,0-0.176-0.033-0.254-0.108c-0.129-0.128-0.253-0.25,0.176-0.927c-0.912-0.123-1.414-0.349-1.621-0.721
		c-0.213-0.389-0.032-0.782,0.101-1.07c0.037-0.088,0.097-0.217,0.106-0.276c-0.022,0.011-0.121-0.035-0.383-0.056
		c-0.183-0.013-0.42-0.004-0.494,0.125c-0.224,0.378,0.345,1.56,0.797,2.24l-0.549,0.366c-0.227-0.34-1.324-2.072-0.818-2.941
		c0.138-0.233,0.445-0.499,1.117-0.447c0.33,0.025,0.734,0.094,0.91,0.396c0.174,0.298,0.027,0.613-0.092,0.869
		c-0.08,0.179-0.172,0.379-0.119,0.474c0.035,0.062,0.226,0.274,1.211,0.398c0.094,0.013,0.182,0.022,0.266,0.028
		c0.01-0.014,0.02-0.029,0.033-0.045c-0.178-0.294-0.422-0.812-0.24-1.208c0.08-0.174,0.266-0.388,0.697-0.424
		c0.568-0.05,1.138,0.383,1.392,0.811c0.177,0.301,0.218,0.61,0.114,0.876c0.008,0.005,0.015,0.011,0.023,0.019l0.25,0.162
		l-0.369,0.55L22.325,21.789z M22.059,20.883c-0.011-0.079-0.052-0.157-0.072-0.196c-0.164-0.271-0.502-0.495-0.74-0.495
		c-0.012,0-0.02,0-0.029,0.001c-0.121,0.012-0.157,0.04-0.157,0.04c-0.046,0.084,0.091,0.456,0.313,0.755l0.145,0.202l-0.021,0.026
		c0.025-0.003,0.055-0.007,0.076-0.012l0.438-0.345L22.059,20.883z"/>
</g>
<g>
</g>
<g>
</g>
<g>
</g>
<g>
</g>
<g>
</g>
<g>
</g>
<g>
</g>
<g>
</g>
<g>
</g>
<g>
</g>
<g>
</g>
<g>
</g>
<g>
</g>
<g>
</g>
<g>
</g>
</svg>
