<?xml version="1.0" encoding="iso-8859-1"?>
<!-- Generator: Adobe Illustrator 18.1.1, SVG Export Plug-In . SVG Version: 6.00 Build 0)  -->
<svg version="1.1" id="Capa_1" xmlns="http://www.w3.org/2000/svg" xmlns:xlink="http://www.w3.org/1999/xlink" x="0px" y="0px"
	 viewBox="0 0 32.009 32.009" style="enable-background:new 0 0 32.009 32.009;" xml:space="preserve">
<g>
	<path style="fill:#010002;" d="M21.33,9.26H7.049V7.535H21.33V9.26z M12.417,10.84H7.049v1.724h5.368
		C12.417,12.564,12.417,10.84,12.417,10.84z M17.304,4.232H7.049v1.725h10.255V4.232z M18.783,12.564h2.546V10.84h-2.546V12.564z
		 M21.329,4.232h-2.546v1.725h2.546V4.232z M12.417,14.143H7.049v1.725h5.368C12.417,15.868,12.417,14.143,12.417,14.143z
		 M21.529,25.086l1.127,1.651h0.03c0.231,0,0.453-0.042,0.668-0.103l-1.056-1.548C22.298,25.086,21.529,25.086,21.529,25.086z
		 M16.946,18.369l4.583,6.717h-1.443l-3.849-5.641l-0.888-1.301c-0.07-0.084-0.136-0.171-0.189-0.277l-0.051-0.074l0.018-0.012
		c-0.044-0.1-0.093-0.197-0.121-0.316l-1.211-5.127c-0.169-0.715,0.013-1.115,0.422-1.115c0.203,0,0.463,0.098,0.763,0.306
		l4.333,2.998c0.099,0.07,0.183,0.144,0.26,0.222l0.012-0.008l0.043,0.062c0.096,0.103,0.168,0.215,0.225,0.328l0.859,1.26
		l3.095,4.536v2.643c0,0.822-0.513,1.516-1.121,1.516h-0.388l-4.813-7.053l-0.367,0.25C17.061,18.322,17.004,18.34,16.946,18.369z
		 M18.719,15.33l-3.812-2.638l1.066,4.511L18.719,15.33z M5.727,25.086c-0.608,0-1.121-0.695-1.121-1.516V3.166
		c0-0.821,0.513-1.515,1.121-1.515h16.959c0.608,0,1.121,0.695,1.121,1.515v17.761l1.652,2.421V3.166C25.459,1.42,24.215,0,22.686,0
		H5.727C4.198,0,2.954,1.42,2.954,3.166V23.57c0,1.746,1.244,3.167,2.773,3.167h15.485l-1.127-1.651
		C20.085,25.086,5.727,25.086,5.727,25.086z M7.049,22.474h8.087V20.75H7.049V22.474z M29.035,29.233
		c-0.009,0.631-0.31,1.25-0.868,1.631l-1.172,0.799c-0.342,0.235-0.734,0.346-1.122,0.346c-0.227,0-0.448-0.051-0.662-0.125
		c-0.343-0.06-0.638-0.222-0.822-0.492c-0.029-0.041-0.044-0.088-0.066-0.133c-0.034-0.041-0.076-0.074-0.107-0.12l-3.004-4.402
		h1.443l0.364,0.534l0.525-0.357l-0.191-0.28c1.206-0.344,2.105-1.582,2.105-3.064v-0.223l3.232,4.737
		c0.034,0.051,0.056,0.104,0.085,0.156c0.029,0.034,0.063,0.061,0.088,0.098C29.04,28.595,29.089,28.91,29.035,29.233z
		 M27.328,27.859l-1.078-1.578l-2.824,1.928l1.078,1.578c0.173-0.271,0.409-0.527,0.711-0.732l1.172-0.801
		C26.688,28.048,27.012,27.921,27.328,27.859z M13.335,17.445H7.049v1.725h6.286V17.445z"/>
</g>
<g>
</g>
<g>
</g>
<g>
</g>
<g>
</g>
<g>
</g>
<g>
</g>
<g>
</g>
<g>
</g>
<g>
</g>
<g>
</g>
<g>
</g>
<g>
</g>
<g>
</g>
<g>
</g>
<g>
</g>
</svg>
