<?xml version="1.0" encoding="iso-8859-1"?>
<!-- Generator: Adobe Illustrator 18.0.0, SVG Export Plug-In . SVG Version: 6.00 Build 0)  -->
<!DOCTYPE svg PUBLIC "-//W3C//DTD SVG 1.1//EN" "http://www.w3.org/Graphics/SVG/1.1/DTD/svg11.dtd">
<svg version="1.1" id="Capa_1" xmlns="http://www.w3.org/2000/svg" xmlns:xlink="http://www.w3.org/1999/xlink" x="0px" y="0px"
	 viewBox="0 0 420.063 420.063" style="enable-background:new 0 0 420.063 420.063;" xml:space="preserve">
<g>
	<path d="M296.909,0c-27.15,0-52.093,9.617-71.611,25.619c7.026,4.368,13.431,9.644,19.05,15.663
		c14.744-10.815,32.919-17.212,52.562-17.212c49.105,0,89.054,39.948,89.054,89.053c0,49.105-39.948,89.055-89.054,89.055
		c-13.535,0-26.37-3.042-37.87-8.466c-2.851,7.194-6.449,14.499-10.629,21.596c14.707,7.01,31.151,10.938,48.499,10.938
		c62.375,0,113.122-50.746,113.122-113.123C410.031,50.748,359.284,0,296.909,0z"/>
	<path d="M305.079,134.291c-5.801,0-10.003-1.808-12.48-5.374c-1.963-2.815-5.394-4.225-8.761-3.598l-6.596,1.229
		c-2.879,0.528-5.298,2.473-6.444,5.165c-1.146,2.693-0.864,5.781,0.746,8.226c5.26,7.984,13.542,12.781,24.61,14.279v13.587
		c0,4.825,3.908,8.734,8.735,8.734c4.83,0,8.738-3.91,8.738-8.734v-14.054c7.585-1.409,13.745-4.327,18.347-8.702
		c5.393-5.122,8.127-11.559,8.127-19.137c0-5.409-1.411-10.168-4.184-14.136c-2.779-3.979-6.31-6.84-10.502-8.508
		c-4.127-1.645-11.031-3.534-20.477-5.598c-4.096-0.916-6.61-1.806-7.476-2.645c-0.819-0.804-1.253-1.827-1.253-2.961
		c0-4.006,4.215-4.849,7.744-4.849c4.383,0,7.765,1.303,10.038,3.868c2.281,2.572,5.866,3.569,9.148,2.539l4.521-1.417
		c2.867-0.894,5.069-3.2,5.84-6.106c0.767-2.905-0.019-5.999-2.072-8.194c-4.443-4.757-10.302-7.789-17.802-9.221V58.441
		c0-4.825-3.908-8.735-8.738-8.735c-4.827,0-8.735,3.911-8.735,8.735v10.058c-8.377,1.403-14.745,4.62-18.905,9.574
		c-4.299,5.123-6.479,11.063-6.479,17.666c0,6.08,1.934,11.31,5.925,15.986c3.927,4.614,13.275,8.451,27.777,11.41
		c3.611,0.734,6.146,1.598,7.532,2.566c1.364,0.952,1.996,2.181,1.996,3.872C314.002,130.741,314.002,134.291,305.079,134.291z"/>
	<path d="M274.254,244.687l-49.387-14.968c-1.191-3.608-3.838-6.73-7.537-9.371c4.07-4.524,7.506-9.103,10.119-12.891
		c6.199-8.987,11.355-18.667,14.928-28.006c1.76-3.939,3.26-7.893,4.475-11.774c4.809-4.03,7.639-10.049,7.639-16.363v-15.467
		c0-4.438-1.396-8.779-3.965-12.379v-21.774c0-38.197-31.074-69.267-69.266-69.267h-22.455c-38.193,0-69.268,31.07-69.268,69.267
		v21.776c-2.568,3.598-3.964,7.941-3.964,12.376v15.467c0,6.31,2.831,12.325,7.639,16.361c1.214,3.875,2.714,7.834,4.474,11.781
		c3.573,9.337,8.733,19.014,14.928,27.996c2.613,3.789,6.051,8.37,10.121,12.896c-3.701,2.641-6.347,5.763-7.539,9.371
		L65.81,244.687C31.039,254.679,10.203,404.91,10.203,404.91h0.004c-0.105,0.667-0.176,1.346-0.176,2.043
		c0,7.24,5.868,13.109,13.109,13.109h293.781c7.242,0,13.109-5.869,13.109-13.109C330.031,400.668,309.023,254.679,274.254,244.687z
		 M158.055,256.552c0.842,0.933,1.248,2.179,1.12,3.429l-2.433,23.597c-0.188,1.815-1.468,3.332-3.227,3.822
		c-0.395,0.109-0.794,0.164-1.191,0.164c-1.37,0-2.691-0.638-3.545-1.768l-12.475-16.548c-0.582-0.771-0.895-1.71-0.895-2.676
		l0.016-26.532c0.001-1.556,0.816-2.998,2.149-3.801c1.334-0.803,2.989-0.849,4.365-0.122c3.632,1.92,7.259,3.21,10.778,3.835
		c2.119,0.376,3.664,2.218,3.664,4.371v11.069C157.015,255.642,157.59,256.036,158.055,256.552z M180.891,259.981
		c-0.131-1.25,0.277-2.496,1.119-3.429c0.465-0.516,1.039-0.91,1.67-1.158v-11.069c0-2.153,1.547-3.995,3.666-4.371
		c3.518-0.625,7.143-1.914,10.773-3.833c1.377-0.727,3.033-0.68,4.367,0.122c1.333,0.804,2.148,2.247,2.148,3.803l0.002,26.532
		c0,0.964-0.313,1.901-0.895,2.672l-12.458,16.537c-0.852,1.13-2.174,1.768-3.547,1.768c-0.395,0-0.795-0.053-1.188-0.162
		c-1.758-0.49-3.039-2.006-3.227-3.823L180.891,259.981z M115.873,156.886l-0.239-1.839l-4.31-2.8c-1.26-0.819-2.02-2.22-2.02-3.723
		v-7.309c0-2.452,1.987-4.44,4.439-4.44h1.813v-7.917c0-1.684,0.951-3.221,2.457-3.973c6.112-3.052,18.242-8.171,30.801-8.171
		c10.021,0,18.329,3.334,24.696,9.907c7.932,8.198,17.072,12.354,27.174,12.354c5.716,0,11.627-1.348,17.564-4.009
		c1.373-0.616,2.965-0.493,4.229,0.325c0.592,0.383,1.074,0.894,1.42,1.483h2.422c2.451,0,4.439,1.988,4.439,4.44v7.31
		c0,1.503-0.762,2.904-2.021,3.723l-4.309,2.8l-0.238,1.829c-1.404,10.615-7.359,24.369-15.932,36.794
		c-10.857,15.746-21.031,22.794-26.303,22.794h-23.852c-5.27,0-15.445-7.049-26.303-22.797
		C123.231,181.245,117.275,167.494,115.873,156.886z"/>
</g>
<g>
</g>
<g>
</g>
<g>
</g>
<g>
</g>
<g>
</g>
<g>
</g>
<g>
</g>
<g>
</g>
<g>
</g>
<g>
</g>
<g>
</g>
<g>
</g>
<g>
</g>
<g>
</g>
<g>
</g>
</svg>
