<?xml version="1.0" encoding="iso-8859-1"?>
<!-- Generator: Adobe Illustrator 18.1.1, SVG Export Plug-In . SVG Version: 6.00 Build 0)  -->
<svg version="1.1" id="Capa_1" xmlns="http://www.w3.org/2000/svg" xmlns:xlink="http://www.w3.org/1999/xlink" x="0px" y="0px"
	 viewBox="0 0 456.521 456.521" style="enable-background:new 0 0 456.521 456.521;" xml:space="preserve">
<g>
	<path d="M128.347,456.521c-14.051,0-22.747-2.888-23.562-3.168c-6.801-2.357-10.536-9.665-8.459-16.561l21.03-69.826
		c-61.909-36.053-99.917-99.725-99.917-168.663C17.439,88.961,112.013,0,228.26,0s210.821,88.961,210.821,198.303
		c0,106.942-88.3,193.449-201.523,198.058c-1.724,0.343-3.553,0.343-5.41-0.084l-0.657-0.147
		c-6.602-1.483-11.071-7.651-10.421-14.386c0.647-6.742,6.211-11.938,12.977-12.134c99.914-2.881,178.178-78.128,178.178-171.306
		c0-94.535-82.527-171.446-183.965-171.446S44.295,103.767,44.295,198.303c0,62.427,36.487,119.979,95.221,150.192
		c5.511,2.832,8.365,9.071,6.906,15.1c-0.122,0.504-0.273,0.993-0.448,1.476l-19.481,64.686
		c13.802,0.266,37.613-3.077,65.791-24.143c5.934-4.434,14.358-3.224,18.792,2.714c4.441,5.945,3.228,14.358-2.714,18.799
		C176.101,451.248,147.339,456.521,128.347,456.521z"/>
	<path d="M228.26,143.786H109.184c-5.934,0-10.742-4.812-10.742-10.742c0-5.931,4.808-10.742,10.742-10.742H228.26
		c5.934,0,10.742,4.812,10.742,10.742C239.003,138.974,234.195,143.786,228.26,143.786z"/>
	<path d="M228.26,210.199H109.184c-5.934,0-10.742-4.812-10.742-10.743c0-5.931,4.808-10.742,10.742-10.742H228.26
		c5.934,0,10.742,4.812,10.742,10.742C239.003,205.387,234.195,210.199,228.26,210.199z"/>
	<path d="M228.26,276.612H109.184c-5.934,0-10.742-4.812-10.742-10.742s4.808-10.742,10.742-10.742H228.26
		c5.934,0,10.742,4.812,10.742,10.742S234.195,276.612,228.26,276.612z"/>
	<g>
		<path d="M292.694,165.268c0,1.508-0.292,2.913-0.87,4.21c-0.584,1.303-1.357,2.448-2.313,3.437
			c-0.962,0.994-2.092,1.767-3.389,2.313c-1.303,0.551-2.708,0.822-4.21,0.822c-3.081,0-5.632-1.027-7.653-3.081
			c-2.016-2.054-3.027-4.621-3.027-7.702c0-6.842,1.319-13.279,3.956-19.306c2.632-6.021,6.21-11.296,10.728-15.814
			c4.518-4.518,9.788-8.075,15.814-10.68c6.021-2.6,12.425-3.902,19.203-3.902c6.777,0,13.177,1.335,19.203,4.005
			c6.021,2.67,11.296,6.264,15.814,10.782s8.096,9.793,10.728,15.814c2.638,6.026,3.956,12.393,3.956,19.1
			c0,13.555-4.897,25.332-14.685,35.325l-16.122,14.89c-5.48,5.48-8.215,11.469-8.215,17.971c0,3.081-1.011,5.632-3.027,7.648
			c-2.021,2.021-4.572,3.032-7.653,3.032s-5.648-1.011-7.702-3.032c-2.054-2.016-3.081-4.567-3.081-7.648
			c0-12.323,4.891-23.375,14.685-33.169l16.122-14.993c5.475-5.68,8.215-12.355,8.215-20.024c0-3.832-0.757-7.459-2.259-10.885
			c-1.508-3.421-3.54-6.415-6.113-8.988c-2.562-2.562-5.561-4.599-8.983-6.107c-3.427-1.503-7.053-2.259-10.885-2.259
			c-3.902,0-7.567,0.735-10.988,2.205c-3.427,1.475-6.415,3.481-8.988,6.01c-2.562,2.535-4.583,5.513-6.053,8.934
			C293.429,157.604,292.694,161.301,292.694,165.268z"/>
		<path d="M335.515,266.969c0,4.043-1.421,7.48-4.259,10.323c-2.843,2.837-6.286,4.259-10.323,4.259
			c-4.043,0-7.48-1.421-10.323-4.259c-2.837-2.843-4.259-6.28-4.259-10.323c0-4.037,1.421-7.48,4.259-10.323
			c2.843-2.837,6.28-4.259,10.323-4.259c4.037,0,7.48,1.421,10.323,4.259C334.094,259.488,335.515,262.931,335.515,266.969z"/>
	</g>
</g>
<g>
</g>
<g>
</g>
<g>
</g>
<g>
</g>
<g>
</g>
<g>
</g>
<g>
</g>
<g>
</g>
<g>
</g>
<g>
</g>
<g>
</g>
<g>
</g>
<g>
</g>
<g>
</g>
<g>
</g>
</svg>
