<?xml version="1.0" encoding="iso-8859-1"?>
<!-- Generator: Adobe Illustrator 18.1.1, SVG Export Plug-In . SVG Version: 6.00 Build 0)  -->
<svg version="1.1" id="Capa_1" xmlns="http://www.w3.org/2000/svg" xmlns:xlink="http://www.w3.org/1999/xlink" x="0px" y="0px"
	 viewBox="0 0 23.318 23.318" style="enable-background:new 0 0 23.318 23.318;" xml:space="preserve">
<g>
	<circle style="fill:#010002;" cx="8.622" cy="4.729" r="4.729"/>
	<path style="fill:#010002;" d="M15.504,12.121c-0.614,0-1.203,0.104-1.757,0.287c-1.169-1.499-3.026-2.472-5.125-2.472
		c-3.54,0.001-6.408,2.757-6.408,6.161v3.421h7.994c0.752,2.206,2.84,3.8,5.296,3.8c3.088,0,5.599-2.512,5.599-5.599
		S18.592,12.121,15.504,12.121z M11.14,17.719c0-2.406,1.958-4.365,4.364-4.365c2.408,0,4.366,1.959,4.366,4.365
		c0,2.407-1.958,4.365-4.366,4.365C13.098,22.084,11.14,20.126,11.14,17.719z"/>
	<path style="fill:#010002;" d="M16.284,14.509h-1.39c-0.001,0.666,0,2.418,0,2.418s-1.508,0-2.254,0.002v1.389
		c0.746-0.001,2.254-0.001,2.254-0.001s0,1.75-0.001,2.419h1.39c0.001-0.669,0.001-2.419,0.001-2.419s1.507,0,2.253,0v-1.39
		c-0.746,0-2.253,0-2.253,0S16.282,15.175,16.284,14.509z"/>
</g>
<g>
</g>
<g>
</g>
<g>
</g>
<g>
</g>
<g>
</g>
<g>
</g>
<g>
</g>
<g>
</g>
<g>
</g>
<g>
</g>
<g>
</g>
<g>
</g>
<g>
</g>
<g>
</g>
<g>
</g>
</svg>
