<?xml version="1.0" encoding="iso-8859-1"?>
<!-- Generator: Adobe Illustrator 18.1.1, SVG Export Plug-In . SVG Version: 6.00 Build 0)  -->
<svg version="1.1" id="Capa_1" xmlns="http://www.w3.org/2000/svg" xmlns:xlink="http://www.w3.org/1999/xlink" x="0px" y="0px"
	 viewBox="0 0 23.304 23.304" style="enable-background:new 0 0 23.304 23.304;" xml:space="preserve">
<g>
	<g>
		<path style="fill:#010002;" d="M19.035,0H1.498v20.93h17.537V0z M17.981,19.876c-0.956,0-14.472,0-15.429,0
			c0-0.973,0-17.851,0-18.821c0.958,0,14.473,0,15.429,0C17.981,2.026,17.981,18.904,17.981,19.876z"/>
		<rect x="4.392" y="3.399" style="fill:#010002;" width="11.988" height="1.106"/>
		<rect x="4.392" y="6.884" style="fill:#010002;" width="11.988" height="1.105"/>
		<polygon style="fill:#010002;" points="19.757,2.372 19.757,3.427 20.75,3.427 20.75,22.247 5.32,22.247 5.32,21.516 
			4.264,21.516 4.264,23.304 21.806,23.304 21.806,2.372 		"/>
		<path style="fill:#010002;" d="M4.84,15.083c0.208,0,0.398-0.059,0.573-0.145l1.504,1.23c-0.008,0.058-0.034,0.108-0.034,0.168
			c0,0.728,0.59,1.317,1.317,1.317s1.317-0.59,1.317-1.317c0-0.209-0.06-0.399-0.146-0.575c0.723-1.084,1.646-2.47,2.2-3.301
			c0.085,0.018,0.165,0.052,0.255,0.052c0.316,0,0.595-0.126,0.822-0.312c0.495,0.289,1.138,0.664,1.692,0.987
			c-0.001,0.019-0.011,0.033-0.011,0.052c0,0.728,0.59,1.317,1.317,1.317s1.316-0.59,1.316-1.317s-0.589-1.317-1.316-1.317
			c-0.322,0-0.606,0.129-0.836,0.321l-1.683-0.982c0.001-0.022,0.013-0.041,0.013-0.063c0-0.727-0.589-1.315-1.315-1.315
			s-1.314,0.589-1.314,1.315c0,0.244,0.084,0.459,0.199,0.655c-0.691,1.038-1.593,2.391-2.158,3.24
			C8.438,15.059,8.325,15.02,8.2,15.02c-0.272,0-0.511,0.103-0.721,0.244c-0.417-0.342-0.933-0.764-1.394-1.141
			c0.033-0.116,0.072-0.23,0.072-0.356c0-0.729-0.593-1.317-1.317-1.316c-0.729,0-1.318,0.588-1.318,1.316
			C3.521,14.493,4.11,15.083,4.84,15.083z"/>
	</g>
</g>
<g>
</g>
<g>
</g>
<g>
</g>
<g>
</g>
<g>
</g>
<g>
</g>
<g>
</g>
<g>
</g>
<g>
</g>
<g>
</g>
<g>
</g>
<g>
</g>
<g>
</g>
<g>
</g>
<g>
</g>
</svg>
