<?xml version="1.0" encoding="iso-8859-1"?>
<!-- Generator: Adobe Illustrator 16.0.0, SVG Export Plug-In . SVG Version: 6.00 Build 0)  -->
<!DOCTYPE svg PUBLIC "-//W3C//DTD SVG 1.1//EN" "http://www.w3.org/Graphics/SVG/1.1/DTD/svg11.dtd">
<svg version="1.1" id="Capa_1" xmlns="http://www.w3.org/2000/svg" xmlns:xlink="http://www.w3.org/1999/xlink" x="0px" y="0px"
	 width="398.886px" height="398.886px" viewBox="0 0 398.886 398.886" style="enable-background:new 0 0 398.886 398.886;"
	 xml:space="preserve">
<g>
	<path d="M10.499,102.86h285.273c5.132,0,9.28-4.148,9.28-9.27V9.277c0-5.122-4.148-9.277-9.28-9.277H10.499
		C5.374,0,1.226,4.156,1.226,9.277V93.59C1.226,98.706,5.374,102.86,10.499,102.86z M31.376,24.692h121.76v48.698H31.376V24.692z
		 M305.052,176.677v-43.035c0-5.122-4.148-9.266-9.268-9.266H10.499c-5.125,0-9.273,4.145-9.273,9.266v84.318
		c0,5.133,4.148,9.274,9.273,9.274h164.949v-21.296c0-16.146,13.131-29.268,29.271-29.268h100.334V176.677z M153.136,196.519H31.376
		V147.82h121.76V196.519z M1.226,256.828v84.312c0,5.122,4.148,9.267,9.273,9.267h164.949V247.547H10.499
		C5.374,247.547,1.226,251.707,1.226,256.828z M31.376,274.636h121.76v48.693H31.376V274.636z M390.811,199.09H204.718
		c-3.789,0-6.857,3.067-6.857,6.854v186.092c0,3.775,3.068,6.851,6.857,6.851h186.093c3.787,0,6.85-3.075,6.85-6.851V205.939
		C397.661,202.146,394.598,199.09,390.811,199.09z M236.11,209.358h123.307v57.653H236.11V209.358z M365.411,384.314H230.129V298.99
		h135.286v85.324H365.411z M324.598,217.921h17.127v41.106h-17.127V217.921z M352.987,320.106H242.529v-6.856h110.458V320.106z
		 M352.987,344.08H242.529v-6.846h110.458V344.08z M352.987,367.193H242.529v-6.851h110.458V367.193z"/>
</g>
<g>
</g>
<g>
</g>
<g>
</g>
<g>
</g>
<g>
</g>
<g>
</g>
<g>
</g>
<g>
</g>
<g>
</g>
<g>
</g>
<g>
</g>
<g>
</g>
<g>
</g>
<g>
</g>
<g>
</g>
</svg>
