<?xml version="1.0" encoding="iso-8859-1"?>
<!-- Generator: Adobe Illustrator 18.1.1, SVG Export Plug-In . SVG Version: 6.00 Build 0)  -->
<svg version="1.1" id="Capa_1" xmlns="http://www.w3.org/2000/svg" xmlns:xlink="http://www.w3.org/1999/xlink" x="0px" y="0px"
	 viewBox="0 0 23.304 23.304" style="enable-background:new 0 0 23.304 23.304;" xml:space="preserve">
<g>
	<path style="fill:#010002;" d="M18.731,13.297c0,0-0.093-1.087-0.807-1.684c-0.399-0.338-0.781-0.382-1.052-0.356v2.044h-0.489
		v-2.239c-0.146-0.317-0.438-0.807-0.902-0.991c-0.462-0.186-0.935-0.14-1.225-0.084v2.307h-0.487v-2.59
		c-0.207-0.249-0.579-0.546-1.231-0.585c-0.352-0.021-0.666,0.121-0.914,0.277l-0.048,2.217h-0.49l0.015-4.025
		c1.58-0.495,2.735-1.953,2.735-3.698C13.835,1.741,12.093,0,9.945,0c-2.149,0-3.89,1.741-3.89,3.891
		c0,1.682,1.071,3.102,2.565,3.645v6.831c0,0-1.258-2.707-2.327-3.064c-1.067-0.356-1.731,0.285-1.731,0.285
		s1.212,2.246,2.101,4.736c0.571,1.602,0.742,3.459,1.246,4.379c1.281,2.351,2.917,2.595,4.891,2.595c1.97,0,4.65,0.183,5.362-1.456
		C18.875,20.205,18.731,13.297,18.731,13.297z M7.729,3.889c0-1.223,0.992-2.216,2.216-2.216c1.223,0,2.216,0.993,2.216,2.216
		c0,0.797-0.424,1.488-1.053,1.879l0.005-1.433c0,0-0.287-1.492-1.211-1.492c-0.927,0-1.281,1.28-1.281,1.28v1.533
		C8.083,5.253,7.729,4.615,7.729,3.889z"/>
</g>
<g>
</g>
<g>
</g>
<g>
</g>
<g>
</g>
<g>
</g>
<g>
</g>
<g>
</g>
<g>
</g>
<g>
</g>
<g>
</g>
<g>
</g>
<g>
</g>
<g>
</g>
<g>
</g>
<g>
</g>
</svg>
