<?xml version="1.0" encoding="iso-8859-1"?>
<!-- Generator: Adobe Illustrator 16.0.0, SVG Export Plug-In . SVG Version: 6.00 Build 0)  -->
<!DOCTYPE svg PUBLIC "-//W3C//DTD SVG 1.1//EN" "http://www.w3.org/Graphics/SVG/1.1/DTD/svg11.dtd">
<svg version="1.1" id="Capa_1" xmlns="http://www.w3.org/2000/svg" xmlns:xlink="http://www.w3.org/1999/xlink" x="0px" y="0px"
	 width="673.199px" height="673.199px" viewBox="0 0 673.199 673.199" style="enable-background:new 0 0 673.199 673.199;"
	 xml:space="preserve">
<g>
	<g>
		<path d="M67.32,489.6H91.8v-91.799H67.32c0,0-36.72,0-36.72,45.898C30.6,489.6,67.32,489.6,67.32,489.6z"/>
		<path d="M67.32,214.2H91.8v-91.8H67.32c0,0-36.72,0-36.72,45.9C30.6,214.2,67.32,214.2,67.32,214.2z"/>
		<path d="M67.32,336.6H91.8V244.8H67.32c0,0-36.72,0-36.72,45.9C30.6,336.6,67.32,336.6,67.32,336.6z"/>
		<path d="M67.32,612H91.8v-91.801H67.32c0,0-36.72,0-36.72,45.9S67.32,612,67.32,612z"/>
		<path d="M122.399,91.555v551.291c0,16.768,13.74,30.354,30.845,30.354h397.34c17.014,0,30.814-13.922,30.814-30.354V91.555
			c0-16.769-13.739-30.355-30.845-30.355h-397.31C136.2,61.2,122.399,75.123,122.399,91.555z M550.8,91.8V642.6H153V91.8H550.8z"/>
		<polygon points="642.6,612 642.6,0 183.6,0 183.6,28.703 614.631,28.703 614.631,612 		"/>
	</g>
</g>
<g>
</g>
<g>
</g>
<g>
</g>
<g>
</g>
<g>
</g>
<g>
</g>
<g>
</g>
<g>
</g>
<g>
</g>
<g>
</g>
<g>
</g>
<g>
</g>
<g>
</g>
<g>
</g>
<g>
</g>
</svg>
