<?xml version="1.0" encoding="UTF-8" standalone="no"?>
<svg xmlns:rdf="http://www.w3.org/1999/02/22-rdf-syntax-ns#" xmlns="http://www.w3.org/2000/svg" height="210mm" viewBox="0 0 279.00001 210.00001" width="279mm" version="1.1" xmlns:cc="http://creativecommons.org/ns#" xmlns:xlink="http://www.w3.org/1999/xlink" xmlns:dc="http://purl.org/dc/elements/1.1/">
	<title>TiddlyWiki Tiddler Poster</title>
	<defs>
		<linearGradient id="b" y2=".0000048338" gradientUnits="userSpaceOnUse" x2="139.5" gradientTransform="translate(.0000066084)" y1="210" x1="139.5">
			<stop stop-color="#fff" stop-opacity="0" offset="0"/>
			<stop stop-color="#fff" stop-opacity="0" offset=".28319"/>
			<stop stop-color="#c4c4c4" offset=".57167"/>
			<stop stop-color="#fff" stop-opacity="0" offset=".83189"/>
			<stop stop-color="#fff" stop-opacity="0" offset="1"/>
		</linearGradient>
		<linearGradient id="a" y2="141.97" gradientUnits="userSpaceOnUse" x2="120" gradientTransform="translate(19.5 -4.8885)" y1="161.1" x1="120">
			<stop stop-color="#808080" offset="0"/>
			<stop stop-color="#808080" stop-opacity="0" offset="1"/>
		</linearGradient>
		<filter id="d" style="color-interpolation-filters:sRGB" height="1.2016" width="1.063" y="-.10080" x="-0.0315">
			<feGaussianBlur stdDeviation="1.7056137"/>
		</filter>
		<linearGradient id="c" y2="181.91" gradientUnits="userSpaceOnUse" x2="200.76" y1="185.1" x1="200.08">
			<stop stop-color="#0e4b7c" offset="0"/>
			<stop stop-color="#1576c4" offset="1"/>
		</linearGradient>
	</defs>
	<metadata>
		<rdf:RDF>
			<cc:Work rdf:about="">
				<dc:format>image/svg+xml</dc:format>
				<dc:type rdf:resource="http://purl.org/dc/dcmitype/StillImage"/>
				<dc:title>TiddlyWiki Tiddler Poster</dc:title>
				<dc:date>11 January 2015</dc:date>
				<dc:creator>
					<cc:Agent>
						<dc:title>Duarte Nuno Farrajota Ramos</dc:title>
					</cc:Agent>
				</dc:creator>
				<dc:language>English</dc:language>
				<dc:subject>
					<rdf:Bag>
						<rdf:li>TiddlyWiki Tiddler Fish Poster</rdf:li>
					</rdf:Bag>
				</dc:subject>
				<dc:publisher>
					<cc:Agent>
						<dc:title>www.tiddlywiki.com</dc:title>
					</cc:Agent>
				</dc:publisher>
				<dc:description>TiddlyWiki community poster
Your messy thoughts. Organized.
your personal wiki - a single HTML file
laptop, mobile, tablet - offline or in the cloud
own your data 100% - open source and free</dc:description>
				<dc:contributor>
					<cc:Agent>
						<dc:title>Duarte Ramos</dc:title>
					</cc:Agent>
				</dc:contributor>
				<dc:rights>
					<cc:Agent>
						<dc:title>Free to adapt or distribute. Original author reference is very appreciated but not at all required</dc:title>
					</cc:Agent>
				</dc:rights>
				<dc:source>www.tiddlywiki.com</dc:source>
				<cc:license rdf:resource="http://www.linfo.org/bsdlicense.html"/>
				<dc:identifier>http://tiddlywiki.com/poster/</dc:identifier>
			</cc:Work>
		</rdf:RDF>
	</metadata>
	<g>
		<rect height="210" width="279" y=".0000048338" x=".0000066084" fill="url(#b)"/>
	</g>
	<g fill="none">
		<g stroke="#808080">
			<g stroke-width=".22305">
				<circle opacity="0.81" cx="139.5" cy="160" r="1.8885"/>
				<circle opacity="0.81" cx="139.5" cy="170" r="1.8885"/>
				<circle opacity="0.81" cx="139.5" cy="180" r="1.8885"/>
			</g>
			<path opacity="0.81" d="m139.5 171.89v6.223m0-16.223v6.223" stroke-width=".17717"/>
		</g>
		<path opacity="0.81" d="m139.5 158.11v-38.112" stroke="url(#a)" stroke-width=".17717"/>
		<g transform="matrix(.85876 0 0 .94464 8.8284e-8 11.84)" stroke="#000">
			<g stroke-linejoin="round" stroke-linecap="round">
				<path d="m8.0948e-7 92.172h11.503c9.3112 0 12.518-3.9986 20.766-3.9986 8.2485 0 10.763 8.1953 18.547 8.1953 7.7835 0 16.211-8.3913 21.125-8.3874l45.517 0.03618" stroke-width=".37601"/>
				<path d="m8.0948e-7 89.7h11.503c9.3085 0 15.929 5.3507 24.178 5.3507 8.2485 0 11.313-2.9198 19.097-2.9198 7.7835 0 5.8131-3.0641 17.108-3.0107l43.857 0.207" stroke-width=".62669"/>
				<path d="m8.0948e-7 94.084c9.9203 0 13.169 4.293 21.045 4.647 7.7835 0 14.92-11.876 23.168-11.876 8.2485 0 13.116 5.1679 22.417 5.1679h47.289" stroke-width=".15667"/>
				<path d="m8.0948e-7 98.112c9.285 0 9.4475 13.938 18.792 13.938 9.3444 0 7.6862-10.129 18.697-8.3365 11.01 1.7926 6.0461-5.5765 18.059-4.3815 12.013 1.1951 14.355-8.1337 25.278-8.1337l28.952-0.17193" stroke-width=".15667"/>
				<path d="m8.0948e-7 101.34h6.2477c4.9139 0 7.7845-6.2742 15.568-6.2742s6.1169 4.4869 14.365 4.4869c8.2485 0 21.47-13.497 30.78-13.229l31.102 0.89629" stroke-width=".31334"/>
				<path d="m-0.000010132 67.532c4.8228 0 5.872-3.307 11.782-3.307 5.9097 0 3.3571 16.46 20.676 12.235 17.319-4.2251 12.018 9.3649 18.489 9.3649 6.4713 0 11.009 9.0721 15.498 9.0979 4.489 0.0257 5.605-5.2757 12.232-5.2558l26.863 0.08071" stroke-width=".21934"/>
				<path d="m8.0948e-7 86.155h14.415c7.0856 0 13.327-4.7809 19.476-4.7809 6.1494 0 8.3379 9.397 14.745 9.397 6.4069 0 10.24-7.7484 15.625-7.7484 5.3857 0 9.2862 7.3371 13.314 7.3311l26.011-0.03859" stroke-width=".94003"/>
			</g>
			<path d="m162.44 82.185h162.44" stroke-width="1.1103"/>
		</g>
	</g>
	<g>
		<g transform="translate(10.238 -17.776)">
			<g>
				<path d="m125.42 86.285-7.4696 6.8809h-0.00049v0.000488l-3.9338 2.617-3.1158 0.29528-3.2606 0.56094 4.9381-2.3284 5.2506-2.0297-7.0008 1.1343-5.501 1.97-2.1879 0.11945-5.1254 1.6116-2.6055 0.18587-3.2706 1.0082-12.597 4.2687-3.3738 1.4626-3.3752 1.9404-3.3131 1.6116-3.0212 0.81084-1.2375-0.67562-0.22123 1.0555 0.04444 2.0684 5.8785 4.5172-4.1106 0.84427-2.5214 1.6035 1.0187 1.6045 1.6107-0.64742 6.4337 0.60538 4.6586 0.36265 4.3715 1.2643 5.5674 0.63977 3.7455-0.24033 5.1273 0.042 8.0668 1.1295 6.7848 1.0235 4.2429 0.12662 5.8183-1.1797 9.7845-1.691 3.0059-1.013 7.956-2.111 3.315 7.6411 4.0666 1.5194 2.6518-1.3508 1.3259-2.8707 1.4143-2.8707 1.8916-1.0741 2.4378-3.4627 0.43768-3.5224 9.9518-1.0168 5.3486 3.3351 6.0113 6.1632 8.0444 4.8966 3.9778-3.8836 0.88441-9.8782-0.40089-5.049 0.0626-5.791-2.3752-4.4775-4.1254-4.5368-6.4385 4.3581-4.1259 5.6114-2.5625 2.0302-4.1885 2.6265-10.689-2.3284 1.5605-2.4903-2.873-2.4903-2.0331-1.0134-2.5639-1.8152-2.2543-1.646-2.2543-1.562-2.7842-1.7731-2.9175-1.604-2.917-1.4353-2.873-0.549-2.5639 0.12662-4.2429 7.7677-1.4148 1.7306-2.3427-0.12662-2.961 0.04203-1.9891 0.04247-2.2232-0.14716-1.7956 0.43576-1.6881 0.11945 1.6862-2.1845 3.6227-2.9094z" fill-rule="evenodd" filter="url(#d)" stroke="#ccc" stroke-width=".040610"/>
				<g transform="matrix(.86619 0 0 .81205 8.4424 21.315)" stroke-width=".048412">
					<g fill-rule="evenodd">
						<path d="m78.535 106.46-1.1544 1.4333 2.3089 0.84529z" stroke="#ccc" fill="#ccc"/>
						<path d="m77.38 107.89 0.28861 2.0581 2.0203-1.2128z" stroke="#575757" fill="#575757"/>
						<path d="m79.689 108.74 0.10823 2.7196-2.1285-1.5068z" stroke="#2c2c2c" fill="#2c2c2c"/>
					</g>
					<path d="m79.689 108.74 2.0924 1.2128-1.9842 1.5068z" stroke="#000"/>
					<path d="m79.689 108.74 2.0924-0.69828v1.9111z" stroke="#202020" fill="#202020"/>
					<path d="m79.689 108.74 0.65-2.54l1.4431 1.8376-2.0924 0.69828" stroke="#272727" fill="#272727"/>
					<path d="m78.535 106.46 1.804-0.26l-0.64938 2.5359-1.1544-2.2786" stroke="#575757" fill="#575757"/>
					<path d="m77.38 107.89-1.424 1.6572 1.7126 0.40087z" stroke="#009edd" fill="#009edd"/>
					<path d="m75.956 109.55-0.43367-2.131 1.8576 0.47375z" stroke="#0084cf" fill="#0084cf"/>
					<path d="m75.523 107.42 0.86733-2.2349 0.06148 2.4718-0.92882-0.23688" stroke="#0aa7ff" fill="#0aa7ff"/>
					<path d="m76.451 107.65 2.0833-1.1965-1.1544 1.4333z" stroke="#00d5f1" fill="#00d5f1"/>
					<path d="m76.39 105.18 2.1448 1.2753-2.0833 1.1965z" stroke="#0ac4ff" fill="#0ac4ff"/>
					<path d="m76.39 105.18 1.7092-2.2089 0.99488 1.6372z" stroke="#00badd" fill="#00badd"/>
					<path d="m79.094 104.61-0.55929 1.8471-2.1448-1.2753z" stroke="#07b0ff" fill="#07b0ff"/>
					<path d="m79.094 104.61 1.245 1.59-1.804 0.26z" stroke="#0ad8ff" fill="#0ad8ff"/>
					<path d="m78.099 102.97 2.1938-0.75364-1.199 2.3908z" stroke="#00e7b0" fill="#00e7b0"/>
					<path d="m80.293 102.22 2.1683 0.51975-1.1735 1.8451z" stroke="#69ffc9" fill="#69ffc9"/>
					<path d="m79.094 104.61 2.1938-0.026-0.99488-2.3649z" stroke="#0affd8" fill="#0affd8"/>
					<path d="m81.288 104.58-0.949 1.62-1.245-1.59z" stroke="#00e7fc" fill="#00e7fc"/>
					<path d="m81.288 104.58 1.7347 1.3514-2.684 0.26445 0.94931-1.6158" stroke="#0affeb" fill="#0affeb"/>
					<path d="m77.669 109.95-0.9728 1.4962-0.73978-1.8971" stroke="#0a62ff" fill="#0a62ff"/>
					<path d="m77.669 109.95-0.9728 1.4962 3.1013 0.0106" stroke="#0a9dff" fill="#0a9dff"/>
					<path d="m76.696 111.44 1.7347 1.8971 1.3666-1.8865" stroke="#0a93ff" fill="#0a93ff"/>
					<path d="m79.797 111.46-1.3666 1.8865 1.6192 1.0904z" stroke="#0ab1ff" fill="#0ab1ff"/>
					<path d="m79.797 111.46 2.6696 2.9769h-2.4171" stroke="#0aceff" fill="#0aceff"/>
					<path d="m81.132 112.94 3.2469 0.42264-1.912 1.0658" stroke="#0a89ff" fill="#0a89ff"/>
					<path d="m81.132 112.94 0.64937-2.9953-1.9842 1.5068" stroke="#00d6d6" fill="#00d6d6"/>
					<path d="m81.782 109.95 2.0924 1.0291-2.7418 1.9662" stroke="#a7ffff" fill="#a7ffff"/>
					<path d="m83.874 110.98 0.50507 2.3889-3.2469-0.42264" stroke="#b8ebff" fill="#b8ebff"/>
					<path d="m83.874 110.98 1.9481 0.29402-1.4431 2.0948" stroke="#0affff" fill="#0affff"/>
					<path d="m85.822 111.27-0.07215-3.0872-1.876 2.7932" stroke="#52bb00" fill="#52bb00"/>
					<path d="m81.782 109.95 1.8399-2.3705 0.25254 3.3996" stroke="#b8ffff" fill="#b8ffff"/>
					<path d="m83.622 107.58 2.1285 0.60641-1.876 2.7932-0.25254-3.3996" stroke="#88ffb3" fill="#88ffb3"/>
					<path d="m81.782 108.04 1.8399-0.45941-1.8399 2.3705z" stroke="#5cffff" fill="#5cffff"/>
					<path d="m80.339 106.2 1.4431 1.8376 1.2409-2.102z" stroke="#0affff" fill="#0affff"/>
					<path d="m83.622 107.58-0.59896-1.6426-1.2409 2.102z" stroke="#8bffc7" fill="#8bffc7"/>
					<path d="m83.023 105.94 1.9338-0.0847-1.3348 1.7273z" stroke="#0affd8" fill="#0affd8"/>
					<path d="m83.622 107.58 2.1285 0.60641-0.79368-2.3338z" stroke="#0affba" fill="#0affba"/>
					<path d="m81.288 104.58 1.7347 1.3514-0.56122-3.1965z" stroke="#c1ff63" fill="#c1ff63"/>
					<path d="m82.461 102.74 1.9899 1.752-1.4287 1.4445z" stroke="#87ff44" fill="#87ff44"/>
					<path d="m84.451 104.49 0.50507 1.3598-1.9338 0.0847z" stroke="#baff0a" fill="#baff0a"/>
					<path d="m92.027 104.14 6.4216-1.6906-5.4836 6.6888z" stroke="#337fa3" fill="#337fa3"/>
					<path d="m98.449 102.45 2.5253 4.4102-8.0089 2.2786z" stroke="#3c5a9a" fill="#3c5a9a"/>
					<path d="m92.965 109.14 5.9887 3.6017 2.0203-5.8803z" stroke="#543e98" fill="#543e98"/>
					<path d="m98.954 112.74 2.5975 1.4701 0.86583-4.8513z" stroke="#344ba9" fill="#344ba9"/>
					<path d="m102.42 109.36-1.443-2.4991-2.0203 5.8803z" stroke="#485a95" fill="#485a95"/>
					<path d="m92.965 109.14-1.5874 8.0119 4.0405 1.1761z" stroke="#753549" fill="#753549"/>
					<path d="m95.418 118.33 3.5355-5.5863-5.9887-3.6017z" stroke="#4b1f5c" fill="#4b1f5c"/>
					<path d="m95.418 118.33 3.8241 0.66153-0.28861-6.2478z" stroke="#6864d1" fill="#6864d1"/>
					<path d="m99.243 118.99-0.28861-6.2478 2.5975 1.4701z" stroke="#485195" fill="#485195"/>
					<path d="m91.378 117.15 3.0304 4.2632 1.0101-3.0872z" stroke="#db684a" fill="#db684a"/>
					<path d="m91.378 117.15 0.43292 6.3874 2.5975-2.1242z" stroke="#ffc7a7" fill="#ffc7a7"/>
					<path d="m94.408 121.42 4.8342-2.4256-3.8241-0.66153z" stroke="#d77089" fill="#d77089"/>
					<path d="m85.822 111.27 5.5558 5.8803-6.9988-3.7854z" stroke="#c38a98" fill="#c38a98"/>
					<path d="m85.822 111.27 7.1431-2.1316-1.5874 8.0119z" stroke="#645a83" fill="#645a83"/>
					<path d="m85.75 108.18 7.2153 0.95555-7.1431 2.1316z" stroke="#3c4400" fill="#3c4400"/>
					<path d="m84.956 105.85 7.071-1.709-6.2773 4.0427z" stroke="#34671a" fill="#34671a"/>
					<path d="m85.75 108.18 7.2153 0.95555-0.93799-4.9983z" stroke="#003f44" fill="#003f44"/>
					<path d="m80.05 114.43 0.28861 6.7624 2.1285-6.7624z" stroke="#d2b590" fill="#d2b590"/>
					<path d="m82.467 114.43 2.9178 8.3193-1.0058-9.3851z" stroke="#ffd5a7" fill="#ffd5a7"/>
					<path d="m80.339 121.19 5.0463 1.557-2.9178-8.3193z" stroke="#ffe3a7" fill="#ffe3a7"/>
					<path d="m84.379 113.37 6.9988 3.7854-5.993 5.5997z" stroke="#ffaa8f" fill="#ffaa8f"/>
					<path d="m85.385 122.75 6.426 0.78777-0.43292-6.3874z" stroke="#ffbc8f" fill="#ffbc8f"/>
					<path d="m72.513 106.61-1.2245 1.1434 1.8877 1.4033z" stroke="#aa8100" fill="#aa8100"/>
					<path d="m72.513 106.61 1.2245 0.6237-0.56122 1.9231z" stroke="#7d670e" fill="#7d670e"/>
					<path d="m71.288 107.75 0.45918 1.8191 1.4285-0.4158z" stroke="#aea92f" fill="#aea92f"/>
					<path d="m71.747 109.57 0.40816 6.237-5.255-6.4449z" stroke="#cfc174" fill="#cfc174"/>
					<path d="m66.9 109.37 0.10204-2.131 4.2856 0.51975z" stroke="#bb0" fill="#bb0"/>
					<path d="m66.9 109.37 4.3877-1.6112 0.45918 1.8191z" stroke="#cbc034" fill="#cbc034"/>
					<path d="m66.9 109.37-1.5816-1.6632 1.6836-0.46778z" stroke="#9c9434" fill="#9c9434"/>
					<path d="m65.319 107.7 0.05102 2.5468 1.5306-0.88358z" stroke="#775b00" fill="#775b00"/>
					<path d="m65.37 110.25 6.7856 5.5613-5.255-6.4449z" stroke="#b59f33" fill="#b59f33"/>
					<path d="m73.176 109.16 2.7806 0.38981-2.2194-2.3129z" stroke="#69731f" fill="#69731f"/>
					<path d="m73.737 107.23 1.7857 0.18191 0.43367 2.131z" stroke="#69731f" fill="#69731f"/>
					<path d="m72.513 106.61 3.8775-1.4293-2.653 2.053z" stroke="#849600" fill="#849600"/>
					<path d="m75.523 107.42 0.86733-2.2349-2.653 2.053z" stroke="#69731f" fill="#69731f"/>
					<path d="m67.002 107.23 3.4873-0.99817 0.7983 1.5179z" stroke="#b09e3e" fill="#b09e3e"/>
					<path d="m70.49 106.24 2.0228 0.37447-1.2245 1.1434z" stroke="#868224" fill="#868224"/>
					<path d="m70.49 106.24 3.8241-1.9846-1.8013 2.3591z" stroke="#69731f" fill="#69731f"/>
					<path d="m74.314 104.25 2.0762 0.92977-3.8775 1.4293z" stroke="#969a2b" fill="#969a2b"/>
					<path d="m78.099 102.97-3.7853 1.2792 2.0762 0.92977z" stroke="#828e26" fill="#828e26"/>
					<path d="m78.099 102.97 0.11091-1.1097-3.8962 2.3889z" stroke="#565e19" fill="#565e19"/>
					<path d="m76.696 111.44-4.5407 4.3659 3.801-6.263z" stroke="#c2b84e" fill="#c2b84e"/>
					<path d="m73.176 109.16-1.0204 6.6528-0.40816-6.237z" stroke="#acb87a" fill="#acb87a"/>
					<path d="m73.176 109.16 2.7806 0.38981-3.801 6.263z" stroke="#a8b246" fill="#a8b246"/>
					<path d="m67.411 116.85 7.5509 3.8981-2.8061-4.9376z" stroke="#ffd270" fill="#ffd270"/>
					<path d="m78.431 113.34-3.4693 7.4064 5.3771 0.44634z" stroke="#ffe3a7" fill="#ffe3a7"/>
					<path d="m72.155 115.81 6.2754-2.4688-1.7347-1.8971z" stroke="#e0d555" fill="#e0d555"/>
					<path d="m74.961 120.75 3.4693-7.4064-6.2754 2.4688z" stroke="#e0d193" fill="#e0d193"/>
					<path d="m78.431 113.34 1.6192 1.0904 0.28861 6.7624z" stroke="#dfc389" fill="#dfc389"/>
					<path d="m80.293 102.22 1.8112-2.157-3.8941 1.8009z" stroke="#6f8e20" fill="#6f8e20"/>
					<path d="m67.411 116.85 0.12437 3.1527 7.4265 0.74539z" stroke="#ffe3a7" fill="#ffe3a7"/>
					<path d="m67.535 120-3.0349-1.1782 2.9105-1.9745z" stroke="#ffaf58" fill="#ffaf58"/>
					<path d="m124.5 93.704 2.3089 7.5709-4.1127-0.2205z" stroke="#56863f" fill="#56863f"/>
					<path d="m124.5 93.704 1.9481-0.14701 0.36077 7.7179z" stroke="#385a3e" fill="#385a3e"/>
					<path d="m122.69 101.05 1.2988 9.8495 2.814-9.629z" stroke="#276eaf" fill="#276eaf"/>
					<path d="m103.43 93.337 5.9165-1.9846 1.0101 2.5726z" stroke="#6a751a" fill="#6a751a"/>
					<path d="m109.34 91.352 2.5253-0.14701-1.5152 2.7196z" stroke="#719621" fill="#719621"/>
					<path d="m111.87 91.205 2.6696 1.5436-4.1849 1.1761z" stroke="#94af27" fill="#94af27"/>
					<path d="m111.87 91.205 6.3494-2.4256-3.6798 3.9692z" stroke="#6a751a" fill="#6a751a"/>
					<path d="m118.22 88.78 2.0203 1.1026-5.7 2.8666z" stroke="#a9af27" fill="#a9af27"/>
					<path d="m118.22 88.78 8.0811-1.3966-6.0608 2.4991z" stroke="#d9de69" fill="#d9de69"/>
					<path d="m114.54 92.749-0.43292 7.5709-3.7519-6.3948z" stroke="#347d4b" fill="#347d4b"/>
					<path d="m82.461 102.74-2.1683-0.51975 1.8112-2.157z" stroke="#5c7821" fill="#5c7821"/>
					<path d="m82.461 102.74 5.309-2.9339-3.319 4.6859z" stroke="#69731f" fill="#69731f"/>
					<path d="m84.451 104.49 7.576-0.34915-4.257-4.3367z" stroke="#458048" fill="#458048"/>
					<path d="m84.451 104.49 0.50507 1.3598 7.071-1.709z" stroke="#304216" fill="#304216"/>
					<path d="m82.104 100.06 5.6661-0.2572-5.309 2.9339z" stroke="#5b731f" fill="#5b731f"/>
					<path d="m87.77 99.805 8.8748-4.9983-14.541 5.2555z" stroke="#51632c" fill="#51632c"/>
					<path d="m92.027 104.14 4.6178-9.335-8.8748 4.9983z" stroke="#548280" fill="#548280"/>
					<path d="m96.645 94.807 1.8038 7.6444-6.4216 1.6906z" stroke="#42947d" fill="#42947d"/>
					<path d="m96.645 94.807 4.6178 3.5282-2.814 4.1162z" stroke="#447d4b" fill="#447d4b"/>
					<path d="m101.26 98.335-0.28862 8.5264-2.5253-4.4102z" stroke="#427a94" fill="#427a94"/>
					<path d="m101.26 98.335 3.9684 4.0427-4.257 4.4837z" stroke="#41745e" fill="#41745e"/>
					<path d="m105.23 102.38 2.3825 4.6827-6.6395-0.19897z" stroke="#276458" fill="#276458"/>
					<path d="m102.42 109.36 5.1965-2.3002-6.6395-0.19897z" stroke="#366f85" fill="#366f85"/>
					<path d="m107.76 121.86-7.576-1.1026 3.1747-4.9983z" stroke="#368da7" fill="#368da7"/>
					<path d="m100.18 120.75-0.93798-1.7641 4.1127-3.2342z" stroke="#488395" fill="#488395"/>
					<path d="m103.36 115.76 1.6595-4.9248-3.4633 3.3812z" stroke="#3971a4" fill="#3971a4"/>
					<path d="m99.243 118.99 4.1127-3.2342-1.8038-1.5436z" stroke="#486a95" fill="#486a95"/>
					<path d="m105.01 110.83-2.5975-1.4701 5.1965-2.3002z" stroke="#488395" fill="#488395"/>
					<path d="m102.42 109.36-0.86583 4.8513 3.4633-3.3812z" stroke="#485e95" fill="#485e95"/>
					<path d="m64.5 118.82 1.1759 1.9756 1.859-0.79737z" stroke="#ffe3a7" fill="#ffe3a7"/>
					<path d="m65.319 107.7 0.2551-1.2994 1.4285 0.8316z" stroke="#967d00" fill="#967d00"/>
					<path d="m94.408 121.42 1.7263 1.828-4.3237 0.29626z" stroke="#ffc0a7" fill="#ffc0a7"/>
					<path d="m96.135 123.24 3.108-4.2536-4.8342 2.4256z" stroke="#dc9778" fill="#dc9778"/>
					<path d="m100.18 120.75-4.0459 2.4895 3.108-4.2536z" stroke="#b987b7" fill="#b987b7"/>
					<path d="m96.135 123.24 5.9183 0.052-1.8723-2.5415z" stroke="#e9ab97" fill="#e9ab97"/>
					<path d="m102.05 123.3 5.7037-1.4389-7.576-1.1026z" stroke="#bfb18e" fill="#bfb18e"/>
					<path d="m107.61 107.06 0.1533 4.1765-2.7523-0.40627z" stroke="#488395" fill="#488395"/>
					<path d="m105.01 110.83-1.6595 4.9248 4.4118-4.5185z" stroke="#307bad" fill="#307bad"/>
					<path d="m107.76 121.86 3.6076 2.8299-9.3113-1.391z" stroke="#ead2bc" fill="#ead2bc"/>
					<path d="m111.7 120.75-0.33137 3.9378-3.6076-2.8299z" stroke="#acbba0" fill="#acbba0"/>
					<path d="m113.74 121.81-2.3722 2.8723 0.33137-3.9378z" stroke="#4b6a87" fill="#4b6a87"/>
					<path d="m123.99 110.9 2.7554 0.64462 0.0585-10.274z" stroke="#2758af" fill="#2758af"/>
					<path d="m123.99 110.9-2.3089-0.44102 1.0101-9.4085z" stroke="#2677ad" fill="#2677ad"/>
					<path d="m110.35 93.925-2.7403 13.136 6.4922-6.7408z" stroke="#3e6c3e" fill="#3e6c3e"/>
					<path d="m105.23 102.38 5.1228-8.4529-2.7403 13.136z" stroke="#2e6958" fill="#2e6958"/>
					<path d="m101.26 98.335 9.0912-4.4102-5.1228 8.4529z" stroke="#42632c" fill="#42632c"/>
					<path d="m101.26 98.335 2.1646-4.9983 6.9266 0.58803z" stroke="#495613" fill="#495613"/>
					<path d="m96.645 94.807 3.7752-1.2414 0.8426 4.7696z" stroke="#3e751a" fill="#3e751a"/>
					<path d="m100.42 93.565 3.0072-0.22866-2.1646 4.9983z" stroke="#62881e" fill="#62881e"/>
					<path d="m113.74 121.81 5.4591 4.132-7.8313-1.2597z" stroke="#dcc6b2" fill="#dcc6b2"/>
					<path d="m119.2 125.95 1.4796-2.8066-6.9387-1.3254z" stroke="#ccb39c" fill="#ccb39c"/>
					<path d="m120.67 123.14 3.4183 2.9626-1.0714-5.0936z" stroke="#ddb692" fill="#ddb692"/>
					<path d="m123.02 121.01 5.7142 1.4553-5.6122-3.9501z" stroke="#034859" fill="#034859"/>
					<path d="m124.5 93.704-2.5965-2.01 4.5408-3.2225z" stroke="#6a751a" fill="#6a751a"/>
					<path d="m126.44 88.472 8.6223-8.4719-4.4387 7.4324z" stroke="#dfe382" fill="#dfe382"/>
					<path d="m130.62 87.432-4.1817 3.5822-0.002-2.5427z" stroke="#c5c562" fill="#c5c562"/>
					<path d="m114.54 92.749 3.7637-0.69058-4.1966 8.2615z" stroke="#1a755f" fill="#1a755f"/>
					<path d="m118.3 92.058 3.5969-0.36383 0.79267 9.3603z" stroke="#448f5c" fill="#448f5c"/>
					<path d="m122.69 101.05 1.8038-7.3504-2.5965-2.01z" stroke="#556e36" fill="#556e36"/>
					<path d="m121.68 110.46 1.4419 8.0503 0.86695-7.6093z" stroke="#1c7080" fill="#1c7080"/>
					<path d="m126.75 111.55 1.9898 10.915-4.7452-11.559z" stroke="#086572" fill="#086572"/>
					<path d="m123.99 110.9-0.86695 7.6093 5.6122 3.9501z" stroke="#096385" fill="#096385"/>
					<path d="m119.2 125.95 4.8979 0.15592-3.4183-2.9626z" stroke="#e8ceb7" fill="#e8ceb7"/>
					<path d="m130.73 111.91 1.5306-9.7713 0.5102 9.9272z" stroke="#1e6282" fill="#1e6282"/>
					<path d="m132.77 112.07 2.653 0.36383-0.5102-9.7713z" stroke="#3d6299" fill="#3d6299"/>
					<path d="m135.42 112.43 2.9591 0.10394-0.71428-9.1996z" stroke="#38659e" fill="#38659e"/>
					<path d="m138.38 112.54h2.5l-0.40816-8.0561z" stroke="#276eaf" fill="#276eaf"/>
					<path d="m130.73 111.91-0.96937-10.499-3.0102 10.135z" stroke="#3541a1" fill="#3541a1"/>
					<path d="m126.8 101.28 2.9516 0.13849-1.2394-8.3932z" stroke="#1d8356" fill="#1d8356"/>
					<path d="m129.76 101.41 2.5 0.72764-1.1734-8.9397z" stroke="#209458" fill="#209458"/>
					<path d="m132.26 102.14 2.653 0.51976-1.5306-9.5114z" stroke="#1d7c65" fill="#1d7c65"/>
					<path d="m134.91 102.66 2.7551 0.67567-0.86733-10.239z" stroke="#1c7d52" fill="#1c7d52"/>
					<path d="m137.66 103.34 2.8061 1.1434-0.96937-11.227z" stroke="#1d8a6f" fill="#1d8a6f"/>
					<path d="m133.38 93.15 3.4183-0.052-1.8877 9.5634z" stroke="#208e62" fill="#208e62"/>
					<path d="m131.08 93.202 2.2959-0.052-1.1224 8.9917z" stroke="#44995f" fill="#44995f"/>
					<path d="m128.52 93.021 1.2394 8.3932 1.3265-8.2121z" stroke="#1a7563" fill="#1a7563"/>
					<path d="m126.44 93.557 2.073-0.53682-1.7122 8.2547z" stroke="#208e51" fill="#208e51"/>
					<path d="m128.74 122.46 1.9898-10.551-3.9795-0.36383z" stroke="#095b7c" fill="#095b7c"/>
					<path d="m128.74 122.46 4.0305-10.395-2.0408-0.15592z" stroke="#313b84" fill="#313b84"/>
					<path d="m135.42 118.51 5.306 1.6112-2.1428-3.0146z" stroke="#94689a" fill="#94689a"/>
					<path d="m138.58 117.11 6.2754 1.3514-4.1326 1.6632z" stroke="#9d8da5" fill="#9d8da5"/>
					<path d="m138.58 117.11-0.20408-4.5738-2.9591-0.10394z" stroke="#3f4e97" fill="#3f4e97"/>
					<path d="m135.42 118.51v-6.0811l3.1632 4.6778z" stroke="#515985" fill="#515985"/>
					<path d="m132.77 112.07 2.653 6.4449v-6.0811z" stroke="#49518d" fill="#49518d"/>
					<path d="m128.74 122.46 6.6836-3.9501-2.653-6.4449z" stroke="#2c467b" fill="#2c467b"/>
					<path d="m135.42 118.51 6.6836 4.054-13.367-0.10395z" stroke="#1c4c5e" fill="#1c4c5e"/>
					<path d="m140.73 120.12 1.3775 2.4428-6.6836-4.054z" stroke="#4b5a8b" fill="#4b5a8b"/>
					<path d="m140.73 120.12 4.8469 1.1954-0.71427-2.8586z" stroke="#bba6ae" fill="#bba6ae"/>
					<path d="m142.1 122.57 3.4693-1.2474-4.8469-1.1954z" stroke="#635581" fill="#635581"/>
					<path d="m144.86 118.46 6.0455-1.971-5.3312 4.8296z" stroke="#ac9783" fill="#ac9783"/>
					<path d="m138.58 117.11 2.2959-4.5738h-2.5z" stroke="#444792" fill="#444792"/>
					<path d="m140.88 112.54 3.9795 5.9252-6.2754-1.3514z" stroke="#5c5581" fill="#5c5581"/>
					<path d="m140.47 104.48 2.704 0.41581-2.2959 7.6403z" stroke="#2a5eba" fill="#2a5eba"/>
					<path d="m143.17 104.9-1.5306-11.331-1.1734 10.915z" stroke="#208a8e" fill="#208a8e"/>
					<path d="m143.17 104.9 2.4489 0.77962-1.3775-11.642z" stroke="#208e73" fill="#208e73"/>
					<path d="m145.62 105.68 2.704 0.46777-1.1734-11.902z" stroke="#1e8251" fill="#1e8251"/>
					<path d="m148.33 106.14 2.9591 0.25988-1.3775-11.59z" stroke="#327c4e" fill="#327c4e"/>
					<path d="m151.29 106.4 2.704 0.25987-1.5306-11.486z" stroke="#347a56" fill="#347a56"/>
					<path d="m153.99 106.66 2.3469 0.25988-1.3265-11.071z" stroke="#4f8738" fill="#4f8738"/>
					<path d="m156.34 106.92 3.0612 0.2079-2.0918-10.655z" stroke="#688437" fill="#688437"/>
					<path d="m159.4 107.13h3.3673l-2.7551-10.135z" stroke="#688635" fill="#688635"/>
					<path d="m145.62 105.68v5.9252l2.704-5.4574z" stroke="#506a86" fill="#506a86"/>
					<path d="m145.62 111.6 3.0102 0.98752-0.30611-6.4449z" stroke="#4a538c" fill="#4a538c"/>
					<path d="m140.88 112.54 3.1632-0.36382-0.86733-7.2765z" stroke="#3460a2" fill="#3460a2"/>
					<path d="m144.04 112.17 1.5816-0.57172v-5.9252z" stroke="#426394" fill="#426394"/>
					<path d="m143.17 104.9 0.86733 7.2765 1.5816-6.4969z" stroke="#347aa2" fill="#347aa2"/>
					<path d="m124.5 93.704 1.9462-2.6897-0.002-2.5427z" stroke="#a9af27" fill="#a9af27"/>
					<path d="m145.57 121.32 9.1835-2.5988-3.8523-2.2309z" stroke="#cbb993" fill="#cbb993"/>
					<path d="m144.86 118.46-0.81632-6.289-3.1632 0.36382z" stroke="#4d6389" fill="#4d6389"/>
					<path d="m145.62 111.6-0.76529 6.8607-0.81632-6.289z" stroke="#49578d" fill="#49578d"/>
					<path d="m150.9 116.49-2.2701-3.9022-3.7754 5.8732z" stroke="#635581" fill="#635581"/>
					<path d="m144.86 118.46 3.7754-5.8732-3.0102-0.98752z" stroke="#575383" fill="#575383"/>
					<path d="m148.63 112.59 2.653-6.185-2.9591-0.25988z" stroke="#475e8f" fill="#475e8f"/>
					<path d="m148.63 112.59 2.653-6.185-0.38295 10.087z" stroke="#81557c" fill="#81557c"/>
					<path d="m150.9 116.49 4.5155-2.9666-4.1326-7.1206z" stroke="#ab698e" fill="#ab698e"/>
					<path d="m154.76 118.72-3.8523-2.2309 4.5155-2.9666z" stroke="#b98a6c" fill="#b98a6c"/>
					<path d="m155.42 113.52 3.3673 3.0146-4.0305 2.183z" stroke="#d8ad86" fill="#d8ad86"/>
					<path d="m186.62 104.44 7.3596-1.3231 1.5765 1.8458z" stroke="#d5b842" fill="#d5b842"/>
					<path d="m186.62 104.44-1.1544 3.0872 11.229-0.2428z" stroke="#eddb12" fill="#eddb12"/>
					<path d="m196.69 107.28-1.1384-2.3217-8.936-0.52268z" stroke="#d5c342" fill="#d5c342"/>
					<path d="m185.46 107.52 0.036 1.1761 11.193-1.4189z" stroke="#daca0d" fill="#daca0d"/>
					<path d="m185.5 108.7 10.643 1.98 0.54977-3.3989z" stroke="#d9be52" fill="#d9be52"/>
					<path d="m185.46 107.52-11.184-5.9538 12.338 2.8666z" stroke="#bcb02b" fill="#bcb02b"/>
					<path d="m185.46 107.52-13.427 0.0489 13.463 1.1271z" stroke="#eacf0e" fill="#eacf0e"/>
					<path d="m172.04 107.57 2.2435-6.0027 11.184 5.9538z" stroke="#a0a025" fill="#a0a025"/>
					<path d="m162.77 107.13 2.965 0.0246-1.443-8.6734z" stroke="#516417" fill="#516417"/>
					<path d="m165.73 107.16 3.788 0.25727-1.4431-7.6444z" stroke="#839021" fill="#839021"/>
					<path d="m169.52 107.41 2.5186 0.15918 2.2435-6.0027z" stroke="#888d20" fill="#888d20"/>
					<path d="m168.08 99.768 6.2051 1.8008-4.7621 5.8436z" stroke="#8e9922" fill="#8e9922"/>
					<path d="m164.29 98.482 3.788 1.2863-2.345 7.3871z" stroke="#6b851f" fill="#6b851f"/>
					<path d="m160.01 96.996 2.7551 10.135 1.522-8.6489z" stroke="#76821e" fill="#76821e"/>
					<path d="m157.31 96.476 2.0918 10.655 0.61224-10.135z" stroke="#858829" fill="#858829"/>
					<path d="m155.01 95.852 1.3265 11.071 0.96937-10.447z" stroke="#6b851f" fill="#6b851f"/>
					<path d="m152.46 95.177 1.5306 11.486 1.0204-10.811z" stroke="#5f9149" fill="#5f9149"/>
					<path d="m149.91 94.813 2.551 0.36383-1.1735 11.227z" stroke="#2a8455" fill="#2a8455"/>
					<path d="m147.15 94.241 1.1734 11.902 1.5816-11.331z" stroke="#208e5e" fill="#208e5e"/>
					<path d="m144.25 94.033 2.9081 0.20791-1.5306 11.435z" stroke="#249e80" fill="#249e80"/>
					<path d="m141.64 93.565 2.602 0.46777-1.0714 10.863z" stroke="#208e85" fill="#208e85"/>
					<path d="m139.5 93.254 2.1428 0.31185-1.1734 10.915z" stroke="#1b7774" fill="#1b7774"/>
					<path d="m137.66 103.34-0.86733-10.239 2.704 0.15593z" stroke="#208e74" fill="#208e74"/>
					<path d="m126.8 101.28-0.0585 10.274 3.0102-10.135z" stroke="#274daf" fill="#274daf"/>
					<path d="m129.76 101.41 0.96937 10.499 1.5306-9.7713z" stroke="#4b508b" fill="#4b508b"/>
					<path d="m132.26 102.14 0.5102 9.9272 2.1428-9.4075z" stroke="#1d6a83" fill="#1d6a83"/>
					<path d="m134.91 102.66 0.5102 9.7713 2.2449-9.0956z" stroke="#207591" fill="#207591"/>
					<path d="m137.66 103.34 0.71428 9.1996 2.0918-8.0561z" stroke="#3b709e" fill="#3b709e"/>
					<path d="m151.29 106.4 4.1326 7.1206-1.4285-6.8607z" stroke="#bf91a3" fill="#bf91a3"/>
					<path d="m156.34 106.92-0.91836 6.6008-1.4285-6.8607z" stroke="#c68d73" fill="#c68d73"/>
					<path d="m159.4 107.13-3.9795 6.3929 0.91836-6.6008z" stroke="#d0a06d" fill="#d0a06d"/>
					<path d="m159.4 107.13-0.61223 9.4075-3.3673-3.0146z" stroke="#d5af7f" fill="#d5af7f"/>
					<path d="m159.4 107.13 2.4 7.5955 0.96732-7.5955z" stroke="#d8ad86" fill="#d8ad86"/>
					<path d="m162.77 107.13 1.9188 6.7869 1.0462-6.7624z" stroke="#c89d67" fill="#c89d67"/>
					<path d="m165.73 107.16 1.912 5.9538 1.876-5.6965z" stroke="#cbac5d" fill="#cbac5d"/>
					<path d="m169.52 107.41 1.7317 4.888 0.78693-4.7288z" stroke="#dcb460" fill="#dcb460"/>
					<path d="m167.64 113.11 3.6076-0.80854-1.7317-4.888z" stroke="#e2c17c" fill="#e2c17c"/>
					<path d="m164.68 113.92 2.9583-0.80854-1.912-5.9538z" stroke="#d2ab71" fill="#d2ab71"/>
					<path d="m161.8 114.73 2.8861-0.80855-1.9188-6.7869z" stroke="#c99e55" fill="#c99e55"/>
					<path d="m158.79 116.54 3.0122-1.812-2.4-7.5955z" stroke="#d4b079" fill="#d4b079"/>
					<path d="m172.04 107.57-0.78693 4.7288 3.7519-0.95555z" stroke="#d5b242" fill="#d5b242"/>
					<path d="m175 111.35 10.498-2.6461-13.463-1.1271z" stroke="#dac658" fill="#dac658"/>
					<path d="m185.5 108.7 0.98929 1.3944-11.488 1.2517z" stroke="#e2c17c" fill="#e2c17c"/>
					<path d="m186.49 110.09 9.6538 0.58558-10.643-1.98z" stroke="#ddb766" fill="#ddb766"/>
					<path d="m186.49 110.09 6.1734 4.106 3.4804-3.5204z" stroke="#e2c17c" fill="#e2c17c"/>
					<path d="m186.62 104.44 4.8342-3.2342 2.5254 1.9111z" stroke="#d5b242" fill="#d5b242"/>
					<path d="m78.21 101.86 2.0829 0.35606-2.1938 0.75364z" stroke="#69731f" fill="#69731f"/>
					<g stroke-linejoin="round" stroke="#034859" stroke-linecap="round" fill="#034859">
						<path d="m110.17 106.94 1.7317-1.2496-0.10823 2.9402z"/>
						<path d="m111.91 105.69 3.6798 2.5359-3.788 0.40428z"/>
						<path d="m111.8 108.63 1.876 5.2555 1.912-5.6598z"/>
						<path d="m113.67 113.88 4.6899 0.25727-2.7779-5.9171z"/>
					</g>
					<g stroke-linejoin="round" stroke-linecap="round">
						<path d="m113.67 113.88 0.72152 3.7854 3.9684-3.5282z" stroke="#033a59" fill="#033a59"/>
						<path d="m114.39 117.67 4.7621 3.0136-0.79368-6.5418z" stroke="#034859" fill="#034859"/>
						<path d="m114.39 117.67-0.65825 4.1473 5.4203-1.1337z" stroke="#5e98af" fill="#5e98af"/>
						<path d="m119.16 120.68 1.5183 2.459-6.9387-1.3254z" stroke="#83a4ac" fill="#83a4ac"/>
						<path d="m123.02 121.01-3.8652-0.32807 1.5183 2.459z" stroke="#005070" fill="#005070"/>
						<path d="m119.16 120.68 3.8652 0.32807-4.6589-6.8699z" stroke="#034859" fill="#034859"/>
						<path d="m121.68 110.46-2.5253-10.548-3.5716 8.3059z" stroke="#3f7d97" fill="#3f7d97"/>
						<path d="m119.16 99.915 3.5355 1.1393-1.0101 9.4085z" stroke="#2789af" fill="#2789af"/>
						<path d="m114.11 100.32 5.0507-0.40427-0.85407-7.8572z" stroke="#176442" fill="#176442"/>
						<path d="m119.16 99.915 3.5355 1.1393-4.3896-8.9965z" stroke="#1a7566" fill="#1a7566"/>
						<path d="m111.91 105.69 2.2007-5.3658 1.4791 7.9017z" stroke="#538366" fill="#538366"/>
						<path d="m114.11 100.32 1.4791 7.9017 3.5716-8.3059z" stroke="#4a897f" fill="#4a897f"/>
						<path d="m110.17 106.94-2.5599 0.12547 4.2916-1.375z" stroke="#3c4400" fill="#3c4400"/>
						<path d="m107.61 107.06 4.2916-1.375 2.2007-5.3658z" stroke="#3d6a44" fill="#3d6a44"/>
						<path d="m107.77 111.24-0.0105 10.619-4.4013-6.1008z" stroke="#3a81a3" fill="#3a81a3"/>
						<path d="m113.67 113.88-2.345 2.7196 3.0665 1.0658z" stroke="#1a2638" fill="#1a2638"/>
						<path d="m111.33 116.6-1.6234-7.4239 3.9684 4.7042z" stroke="#23344c" fill="#23344c"/>
						<path d="m109.7 109.18 2.0924-0.55127 1.876 5.2555z" stroke="#14253e" fill="#14253e"/>
						<path d="m109.7 109.18 0.46899-2.2419 1.6234 1.6906z" stroke="#334d69" fill="#334d69"/>
						<path d="m107.61 107.06 2.0909 2.1164 0.46899-2.2419z" stroke="#487095" fill="#487095"/>
						<path d="m107.77 111.24 1.9376-2.0601-2.0909-2.1164z" stroke="#487c95" fill="#487c95"/>
						<path d="m111.7 120.75 2.699-3.0818-0.65825 4.1473z" stroke="#23344c" fill="#23344c"/>
						<path d="m111.33 116.6 0.36745 4.1476 2.699-3.0818z" stroke="#10315f" fill="#10315f"/>
						<path d="m111.33 116.6-3.5715 5.2555 3.939-1.1079z" stroke="#487995" fill="#487995"/>
						<path d="m107.77 111.24 3.561 5.3638-3.5716 5.2555z" stroke="#3479a9" fill="#3479a9"/>
						<path d="m107.77 111.24 1.9376-2.0601 1.6234 7.4239z" stroke="#3c60a1" fill="#3c60a1"/>
						<path d="m123.02 121.01 1.0714 5.0936 4.6428-3.6383z" stroke="#d9a474" fill="#d9a474"/>
						<path d="m128.74 122.46 2.0732 2.1858-6.716 1.4524z" stroke="#e4c4a7" fill="#e4c4a7"/>
						<path d="m130.81 124.65 11.294-2.0819-13.367-0.10396z" stroke="#ca8c54" fill="#ca8c54"/>
						<path d="m118.36 114.14 3.319-3.6752-6.0969-2.2419z" stroke="#044a79" fill="#044a79"/>
						<path d="m118.36 114.14 4.761 4.3751-0.10204 2.4948z" stroke="#005070" fill="#005070"/>
						<path d="m118.36 114.14 3.319-3.6752 1.4419 8.0503z" stroke="#04657d" fill="#04657d"/>
					</g>
					<path d="m154.76 118.72 3.8265 9.4075 0.20408-11.59z" stroke="#7b6f2b" fill="#7b6f2b"/>
					<path d="m158.58 128.13 4.7 1.87-4.49-13.46z" stroke="#b29a51" fill="#b29a51"/>
					<path d="m163.28 130 3.0612-1.6632-7.5509-11.798z" stroke="#e0c97e" fill="#e0c97e"/>
					<path d="m166.34 128.34 1.5306-3.5343-9.0815-8.264z" stroke="#e9d79e" fill="#e9d79e"/>
					<path d="m167.87 124.8 1.6326-3.5343-7.7019-6.5418z" stroke="#c5b171" fill="#c5b171"/>
					<path d="m158.79 116.54 3.0122-1.812 6.0693 10.076z" stroke="#827632" fill="#827632"/>
					<path d="m161.8 114.73 2.8861-0.80855 4.8158 7.3503z" stroke="#a08e2c" fill="#a08e2c"/>
					<path d="m169.5 121.27 2.183-1.323-6.9988-6.0273z" stroke="#c4aa56" fill="#c4aa56"/>
					<path d="m171.68 119.95 2.814-4.2632-9.8128-1.7641z" stroke="#d7c17d" fill="#d7c17d"/>
					<path d="m167.64 113.11 6.8545 2.5726-9.8128-1.7641z" stroke="#7a682d" fill="#7a682d"/>
					<path d="m174.5 115.68-3.2469-3.3812-3.6076 0.80854z" stroke="#ad9d3a" fill="#ad9d3a"/>
					<path d="m171.25 112.3 3.7519-0.95555-0.50506 4.3367z" stroke="#e0c87b" fill="#e0c87b"/>
					<path d="m141.64 93.565 4.3877-12.006-1.7857 12.474z" stroke="#726f2a" fill="#726f2a"/>
					<path d="m144.25 94.033 4.7448-12.63-1.8367 12.838z" stroke="#7c792e" fill="#7c792e"/>
					<path d="m147.15 94.241 5.153-12.162-2.3979 12.734z" stroke="#726f2a" fill="#726f2a"/>
					<path d="m149.91 94.813 5.7652-10.967-3.2142 11.331z" stroke="#636239" fill="#636239"/>
					<path d="m152.46 95.177 2.551 0.67568 4.0306-10.031z" stroke="#726f2a" fill="#726f2a"/>
					<path d="m155.01 95.852 2.2959 0.62369 4.9489-8.4719z" stroke="#888544" fill="#888544"/>
					<path d="m157.31 96.476 2.704 0.51975 4.8469-7.0686z" stroke="#726f2a" fill="#726f2a"/>
					<path d="m160.01 96.996 4.277 1.4863 3.1718-6.5278z" stroke="#6b693b" fill="#6b693b"/>
					<path d="m164.29 98.482 3.788 1.2863 2.343-5.5792z" stroke="#504d1d" fill="#504d1d"/>
					<path d="m168.08 99.768 6.2051 1.8008-1.5152-6.1327z" stroke="#886b11" fill="#886b11"/>
					<path d="m172.77 95.437 3.3163 3.0665-1.801 3.0661z" stroke="#d6c693" fill="#d6c693"/>
					<path d="m170.42 94.189 2.3469 1.2474-4.6899 4.3318z" stroke="#c1b078" fill="#c1b078"/>
					<path d="m164.29 98.482 6.131-4.2929-2.9591-2.2349z" stroke="#baa663" fill="#baa663"/>
					<path d="m160.01 96.996 4.8469-7.0686 2.602 2.027z" stroke="#cdb157" fill="#cdb157"/>
					<path d="m157.31 96.476 4.9489-8.4719 2.602 1.9231z" stroke="#e4cf8b" fill="#e4cf8b"/>
					<path d="m155.01 95.852 4.0306-10.031 3.2142 2.183z" stroke="#d1c535" fill="#d1c535"/>
					<path d="m152.46 95.177 3.2142-11.331 3.3673 1.9751z" stroke="#d7cd54" fill="#d7cd54"/>
					<path d="m149.91 94.813 2.3979-12.734 3.3673 1.7672z" stroke="#b9aa6c" fill="#b9aa6c"/>
					<path d="m148.99 81.403 3.3163 0.67567-5.153 12.162z" stroke="#d5bc6a" fill="#d5bc6a"/>
					<path d="m146.03 81.559 2.9591-0.15593-4.7448 12.63z" stroke="#d5bf4c" fill="#d5bf4c"/>
					<path d="m139.5 93.254 1.6326-2.131 0.51019 2.4428z" stroke="#927722" fill="#927722"/>
					<path d="m141.13 91.123 4.8979-9.5634-4.3877 12.006z" stroke="#b9972b" fill="#b9972b"/>
					<path d="m191.45 101.2 2.9583-2.4991-0.43291 4.4102z" stroke="#8b712d" fill="#8b712d"/>
					<path d="m194.41 98.703 4.7621-6.9094-5.195 11.32z" stroke="#c7a22e" fill="#c7a22e"/>
					<path d="m199.17 91.793 10.029 7.8649-15.224 3.4547z" stroke="#e5d191" fill="#e5d191"/>
					<path d="m199.17 91.793 7.4317-5.3658 2.5975 13.231z" stroke="#ecdeaf" fill="#ecdeaf"/>
					<path d="m206.61 86.427 4.7621 5.5863-2.1646 7.6444z" stroke="#f1e7c5" fill="#f1e7c5"/>
					<path d="m195.56 104.96 13.648-5.3004-15.224 3.4547z" stroke="#b29028" fill="#b29028"/>
					<path d="m196.69 107.28 17.344-2.6238-18.482 0.30217z" stroke="#caa42e" fill="#caa42e"/>
					<path d="m214.04 104.66-4.8342-4.9983-13.648 5.3004z" stroke="#ddc26d" fill="#ddc26d"/>
					<path d="m214.04 104.66 0.0722-7.1299-4.9064 2.1316z" stroke="#efe2ba" fill="#efe2ba"/>
					<path d="m214.11 97.527-2.7418-5.5128-2.1646 7.6444z" stroke="#edeab2" fill="#edeab2"/>
					<path d="m192.66 114.2 6.9387 7.5884-3.4582-11.109z" stroke="#877641" fill="#877641"/>
					<path d="m199.6 121.79 9.2856 6.0291 4.5918-4.7817z" stroke="#dbcea1" fill="#dbcea1"/>
					<path d="m199.6 121.79 3.8775-6.9647 9.9998 8.2121z" stroke="#d9c485" fill="#d9c485"/>
					<path d="m199.6 121.79 3.8775-6.9647-7.3357-4.1442z" stroke="#c2ad65" fill="#c2ad65"/>
					<path d="m196.14 110.68 13.152-1.0534-12.602-2.3455z" stroke="#8d7220" fill="#8d7220"/>
					<path d="m196.14 110.68 7.3357 4.1442 5.8162-5.1975z" stroke="#baac7f" fill="#baac7f"/>
					<path d="m209.3 109.63 4.7413-4.9694-17.344 2.6238z" stroke="#e3d486" fill="#e3d486"/>
					<path d="m209.3 109.63 5.204 1.2474-0.46271-6.2168z" stroke="#f3e9ca" fill="#f3e9ca"/>
					<path d="m203.48 114.82 9.9998 8.2121-4.1836-13.41z" stroke="#d8cba1" fill="#d8cba1"/>
					<path d="m209.3 109.63 4.1836 13.41 1.0204-12.162z" stroke="#dfc675" fill="#dfc675"/>
				</g>
			</g>
		</g>
	</g>
	<g>
		<g font-family="sans-serif" fill="#808080">
			<text style="word-spacing:0px;letter-spacing:0px" line-height="125%" xml:space="preserve" font-size="50.529px" y="134.56691" x="139.89273"><tspan style="text-anchor:middle;text-align:center" font-size="17.639px" y="134.56691" x="139.89273" font-family="&apos;Cordia New&apos;" fill="#808080">tiddlywiki.com</tspan></text>
			<text style="word-spacing:0px;letter-spacing:0px" line-height="125%" transform="scale(.99397 1.0061)" font-size="11.243px" y="46.990482" x="140.90038" xml:space="preserve"><tspan style="text-anchor:middle;text-align:center" font-size="19.631px" y="46.990482" x="140.90038" font-family="&apos;Cordia New&apos;">Your messy thoughts. Organized.</tspan></text>
			<g font-size="8.4667px">
				<text style="word-spacing:0px;letter-spacing:0px;text-anchor:end;text-align:end" line-height="125%" xml:space="preserve" y="161.2847" x="129.6819"><tspan style="text-anchor:end;text-align:end" font-size="8.4667px" y="161.2847" x="129.6819" font-family="&apos;Cordia New&apos;">your personal wiki</tspan></text>
				<text style="word-spacing:0px;letter-spacing:0px;text-anchor:end;text-align:end" line-height="125%" y="181.2847" x="129.5" xml:space="preserve"><tspan style="text-anchor:end;text-align:end" font-size="8.4667px" y="181.2847" x="129.5" font-family="&apos;Cordia New&apos;">own your data 100%</tspan></text>
				<text style="word-spacing:0px;letter-spacing:0px" line-height="125%" xml:space="preserve" y="161.31595" x="149.5"><tspan font-size="8.4667px" y="161.31595" x="149.5" font-family="&apos;Cordia New&apos;">a single HTML file</tspan></text>
				<text style="word-spacing:0px;letter-spacing:0px" line-height="125%" y="181.34721" x="149.5" xml:space="preserve"><tspan font-size="8.4667px" y="181.34721" x="149.5" font-family="&apos;Cordia New&apos;">open source and free</tspan></text>
				<text style="word-spacing:0px;letter-spacing:0px;text-anchor:end;text-align:end" line-height="125%" y="171.31595" x="129.26228" xml:space="preserve"><tspan style="text-anchor:end;text-align:end" font-size="8.4667px" y="171.31595" x="129.26228" font-family="&apos;Cordia New&apos;">laptop, mobile, tablet</tspan></text>
				<text style="word-spacing:0px;letter-spacing:0px" line-height="125%" xml:space="preserve" y="171.82187" x="149.5"><tspan font-size="8.4667px" y="171.82187" x="149.5" font-family="&apos;Cordia New&apos;">offline or in the cloud</tspan></text>
			</g>
		</g>
		<path d="m194.11 183.83c0.008-0.0106 0.0196-0.0247 0.0373-0.0419 0.0913-0.0884 0.33017-0.2812 1.0994-0.50699 0.70147-0.20591 1.619-0.36954 2.5886-0.49328 0.62082-0.0792 1.1993-0.13377 1.5946-0.16395 1.7253-0.13172 3.6546-0.27533 5.5113-0.2974a0.23885 0.23885 90 0 0 -0.006 -0.47768c-1.8609 0.0221-3.8096 0.0128-5.5536 0.146-0.39943 0.0305-0.98659 0.0732-1.6205 0.13497-0.9839 0.0958-1.9462 0.22433-2.712 0.40834-0.8194 0.1969-1.2533 0.4235-1.4842 0.6454-0.0489 0.0469-0.0946 0.0983-0.1353 0.15452a0.4197 0.4197 90 0 0 0.6801 0.49202z" fill="url(#c)"/>
	</g>
</svg>
